<svg width="56" height="70" viewBox="0 0 56 70" fill="none" xmlns="http://www.w3.org/2000/svg">
<path d="M21.8 70C19.9333 70 18.4 69.4333 17.2 68.3C16 67.1 15.4 65.6333 15.4 63.9V13.5L16.8 15.7L9.5 21.1C8.56667 21.8333 7.4 22.2 6 22.2C4.4 22.2 3 21.6 1.8 20.4C0.6 19.2 1.41561e-07 17.7667 1.41561e-07 16.1C1.41561e-07 13.9667 1.03333 12.2333 3.1 10.9L17.5 1.3C18.1667 0.833332 18.9 0.499999 19.7 0.299997C20.5667 0.0999959 21.3667 -4.76837e-06 22.1 -4.76837e-06C24.0333 -4.76837e-06 25.5667 0.599995 26.7 1.8C27.8333 2.93333 28.4 4.36666 28.4 6.09999V63.9C28.4 65.6333 27.7667 67.1 26.5 68.3C25.3 69.4333 23.7333 70 21.8 70ZM48.6672 69.9C46.7339 69.9 45.2339 69.4 44.1672 68.4C43.1672 67.3333 42.6672 65.8333 42.6672 63.9V62.2C42.6672 60.2667 43.1672 58.8 44.1672 57.8C45.2339 56.7333 46.7339 56.2 48.6672 56.2H49.9672C51.9005 56.2 53.3672 56.7333 54.3672 57.8C55.4339 58.8 55.9672 60.2667 55.9672 62.2V63.9C55.9672 65.8333 55.4339 67.3333 54.3672 68.4C53.3672 69.4 51.9005 69.9 49.9672 69.9H48.6672Z" fill="#0B6AA1" fill-opacity="0.2"/>
</svg>
