<svg width="72" height="71" viewBox="0 0 72 71" fill="none" xmlns="http://www.w3.org/2000/svg">
<path d="M40.8 60C42.4 60 43.7333 60.5333 44.8 61.6C45.8667 62.6667 46.4 64 46.4 65.6C46.4 67.1333 45.8667 68.4333 44.8 69.5C43.7333 70.5 42.4 71 40.8 71H6.8C5.06667 71 3.7 70.4667 2.7 69.4C1.7 68.3333 1.2 66.9667 1.2 65.3C1.2 63.6333 1.8 62.1667 3 60.9L24.8 37.6C27.2667 34.9333 29.2 32.2 30.6 29.4C32.0667 26.6 32.8 24.1667 32.8 22.1C32.8 18.7667 31.8333 16.1 29.9 14.1C27.9667 12.0333 25.4 11 22.2 11C20.9333 11 19.6333 11.3 18.3 11.9C16.9667 12.5 15.6667 13.3333 14.4 14.4C13.2 15.4667 12.0667 16.7 11 18.1C10.2 19.1667 9.4 19.8333 8.6 20.1C7.8 20.3667 7.06667 20.5 6.4 20.5C4.93333 20.5 3.56667 19.9667 2.3 18.9C1.1 17.7667 0.5 16.4667 0.5 15C0.5 13.8667 0.866667 12.7667 1.6 11.7C2.4 10.6333 3.36667 9.53333 4.5 8.4C6.16667 6.73333 8.03333 5.26666 10.1 4C12.1667 2.73333 14.3 1.76666 16.5 1.09999C18.7 0.366662 20.8333 -3.8147e-06 22.9 -3.8147e-06C27.3667 -3.8147e-06 31.2333 0.899997 34.5 2.7C37.8333 4.43333 40.4 6.93333 42.2 10.2C44 13.4 44.9 17.2 44.9 21.6C44.9 25.2667 43.8 29.3667 41.6 33.9C39.4667 38.3667 36.5667 42.5667 32.9 46.5L19.4 60.9L18.3 60H40.8ZM63.7336 70.9C61.8003 70.9 60.3003 70.4 59.2336 69.4C58.2336 68.3333 57.7336 66.8333 57.7336 64.9V63.2C57.7336 61.2667 58.2336 59.8 59.2336 58.8C60.3003 57.7333 61.8003 57.2 63.7336 57.2H65.0336C66.9669 57.2 68.4336 57.7333 69.4336 58.8C70.5003 59.8 71.0336 61.2667 71.0336 63.2V64.9C71.0336 66.8333 70.5003 68.3333 69.4336 69.4C68.4336 70.4 66.9669 70.9 65.0336 70.9H63.7336Z" fill="#0B6AA1" fill-opacity="0.2"/>
</svg>
