<svg width="69" height="71" viewBox="0 0 69 71" fill="none" xmlns="http://www.w3.org/2000/svg">
<path d="M7.2 55.9C7.8 55.9 8.43333 56 9.1 56.2C9.83333 56.4 10.6333 56.8 11.5 57.4C12.6333 58.2667 13.9667 59.0333 15.5 59.7C17.1 60.3667 18.9333 60.7 21 60.7C23.0667 60.7 25 60.2 26.8 59.2C28.6667 58.1333 30.2 56.6667 31.4 54.8C32.6 52.8667 33.2 50.5667 33.2 47.9C33.2 45.3667 32.6667 43.2667 31.6 41.6C30.6 39.9333 29.2333 38.6667 27.5 37.8C25.8333 36.9333 24.0333 36.5 22.1 36.5C20.6333 36.5 19.4 36.6333 18.4 36.9C17.4667 37.1667 16.5333 37.4667 15.6 37.8C14.7333 38.0667 13.7 38.2 12.5 38.2C10.9667 38.2 9.76667 37.6667 8.9 36.6C8.1 35.5333 7.7 34.2667 7.7 32.8C7.7 31.8667 7.86667 31.0333 8.2 30.3C8.6 29.5667 9.16667 28.7667 9.9 27.9L27.5 9.2L30.2 11.5H5.6C4 11.5 2.66667 10.9667 1.6 9.9C0.533334 8.83333 2.83122e-07 7.5 2.83122e-07 5.9C2.83122e-07 4.36666 0.533334 3.1 1.6 2.1C2.66667 1.03333 4 0.499995 5.6 0.499995H36.2C38.2667 0.499995 39.8 1.06666 40.8 2.2C41.8667 3.33333 42.4 4.76666 42.4 6.49999C42.4 7.36666 42.1667 8.23333 41.7 9.1C41.2333 9.9 40.6667 10.6333 40 11.3L22.3 30.3L19.6 26.9C20.3333 26.5667 21.3333 26.2667 22.6 26C23.9333 25.7333 25.0333 25.6 25.9 25.6C29.8333 25.6 33.2333 26.6333 36.1 28.7C39.0333 30.7 41.2667 33.3333 42.8 36.6C44.4 39.8 45.2 43.2667 45.2 47C45.2 51.9333 44.1 56.2 41.9 59.8C39.7 63.4 36.6 66.1667 32.6 68.1C28.6 70.0333 23.9333 71 18.6 71C16.1333 71 13.7 70.7 11.3 70.1C8.9 69.5 6.83333 68.7 5.1 67.7C3.63333 66.9 2.63333 66.0333 2.1 65.1C1.63333 64.1 1.4 63.1667 1.4 62.3C1.4 60.7667 1.93333 59.3333 3 58C4.13333 56.6 5.53333 55.9 7.2 55.9ZM61.5109 69.9C59.5776 69.9 58.0776 69.4 57.0109 68.4C56.0109 67.3333 55.5109 65.8333 55.5109 63.9V62.2C55.5109 60.2667 56.0109 58.8 57.0109 57.8C58.0776 56.7333 59.5776 56.2 61.5109 56.2H62.8109C64.7443 56.2 66.2109 56.7333 67.2109 57.8C68.2776 58.8 68.8109 60.2667 68.8109 62.2V63.9C68.8109 65.8333 68.2776 67.3333 67.2109 68.4C66.2109 69.4 64.7443 69.9 62.8109 69.9H61.5109Z" fill="#0B6AA1" fill-opacity="0.2"/>
</svg>
