<svg width="77" height="70" viewBox="0 0 77 70" fill="none" xmlns="http://www.w3.org/2000/svg">
<path d="M37.9 70C36.2333 70 34.8333 69.4333 33.7 68.3C32.5667 67.1 32 65.6333 32 63.9V16.9L34.1 17.4L14.8 41.3L14.3 40H49.7C51.3 40 52.6333 40.5333 53.7 41.6C54.7667 42.6667 55.3 44 55.3 45.6C55.3 47.1333 54.7667 48.4333 53.7 49.5C52.6333 50.5 51.3 51 49.7 51H6C4.6 51 3.23333 50.4333 1.9 49.3C0.633333 48.1667 7.07805e-08 46.7667 7.07805e-08 45.1C7.07805e-08 43.6333 0.5 42.3 1.5 41.1L33.1 2.39999C33.6333 1.66666 34.3333 1.1 35.2 0.699998C36.0667 0.23333 37.0333 -4.76837e-06 38.1 -4.76837e-06C39.8333 -4.76837e-06 41.2333 0.599995 42.3 1.8C43.4333 2.93333 44 4.36666 44 6.09999V63.9C44 65.6333 43.4 67.1 42.2 68.3C41.0667 69.4333 39.6333 70 37.9 70ZM69.5891 69.9C67.6557 69.9 66.1557 69.4 65.0891 68.4C64.0891 67.3333 63.5891 65.8333 63.5891 63.9V62.2C63.5891 60.2667 64.0891 58.8 65.0891 57.8C66.1557 56.7333 67.6557 56.2 69.5891 56.2H70.8891C72.8224 56.2 74.2891 56.7333 75.2891 57.8C76.3557 58.8 76.8891 60.2667 76.8891 62.2V63.9C76.8891 65.8333 76.3557 67.3333 75.2891 68.4C74.2891 69.4 72.8224 69.9 70.8891 69.9H69.5891Z" fill="#0B6AA1" fill-opacity="0.2"/>
</svg>
