<svg width="19" height="20" viewBox="0 0 19 20" fill="none" xmlns="http://www.w3.org/2000/svg">
<path d="M9.5013 0.967773C6.92134 0.967773 6.59755 0.979241 5.58344 1.02383C4.79554 1.03944 4.01603 1.18634 3.27805 1.45829C2.64687 1.69833 2.07361 2.06541 1.59499 2.53601C1.11637 3.00661 0.742948 3.57036 0.498637 4.19114C0.221578 4.91693 0.0722255 5.68384 0.0569879 6.45897C0.0116572 7.45528 0 7.77507 0 10.313C0 12.8509 0.0116572 13.1682 0.0569879 14.1658C0.0730516 14.9408 0.222377 15.7076 0.498637 16.4336C0.742794 17.0544 1.116 17.6183 1.59438 18.0891C2.07275 18.5599 2.64577 18.9272 3.27676 19.1677C4.01518 19.4397 4.79511 19.5866 5.58344 19.6022C6.59625 19.648 6.92004 19.6582 9.5 19.6582C12.08 19.6582 12.4037 19.6468 13.4166 19.6022C14.2049 19.5865 14.9848 19.4396 15.7232 19.1677C16.354 18.9269 16.9269 18.5594 17.4052 18.0886C17.8835 17.6179 18.2569 17.0542 18.5014 16.4336C18.7765 15.7073 18.9258 14.9407 18.943 14.1658C18.9883 13.1694 19 12.8509 19 10.313C19 7.77507 18.9883 7.45656 18.943 6.45897C18.9259 5.68404 18.7766 4.91744 18.5014 4.19114C18.257 3.5704 17.8835 3.00668 17.4049 2.53609C16.9263 2.0655 16.3531 1.6984 15.7219 1.45829C14.983 1.18646 14.2027 1.03957 13.414 1.02383C12.4012 0.977967 12.0774 0.967773 9.49741 0.967773H9.5013ZM8.64908 2.65208H9.5013C12.0385 2.65208 12.339 2.661 13.3401 2.70559C13.9426 2.71286 14.5393 2.82189 15.1042 3.02793C15.5138 3.18353 15.8858 3.4217 16.1962 3.72712C16.5067 4.03255 16.7488 4.39848 16.907 4.80142C17.1167 5.35706 17.2275 5.94405 17.2347 6.53669C17.28 7.52154 17.2904 7.81839 17.2904 10.3117C17.2904 12.8051 17.28 13.1019 17.2347 14.0868C17.2274 14.6794 17.1166 15.2664 16.907 15.822C16.7485 16.2247 16.5063 16.5903 16.1959 16.8954C15.8854 17.2006 15.5136 17.4386 15.1042 17.5943C14.5391 17.7993 13.9424 17.9071 13.3401 17.9128C12.339 17.9574 12.0372 17.9676 9.5013 17.9676C6.96537 17.9676 6.6636 17.9574 5.66244 17.9128C5.06003 17.9053 4.46338 17.7963 3.89843 17.5904C3.48854 17.435 3.11626 17.197 2.80554 16.8915C2.49481 16.5861 2.25253 16.22 2.09427 15.8169C1.88463 15.2613 1.77378 14.6743 1.7666 14.0817C1.72127 13.0968 1.7122 12.8 1.7122 10.3054C1.7122 7.81075 1.72127 7.51516 1.7666 6.53032C1.77399 5.9377 1.88482 5.35074 2.09427 4.79505C2.25245 4.39175 2.49469 4.0255 2.80541 3.71983C3.11613 3.41417 3.48846 3.17588 3.89843 3.02028C4.46327 2.81403 5.05999 2.70499 5.66244 2.69795C6.53926 2.65845 6.87859 2.64698 8.64908 2.64571V2.65208ZM14.5731 4.20389C14.3477 4.20389 14.1274 4.26964 13.9399 4.39284C13.7525 4.51603 13.6064 4.69114 13.5202 4.896C13.4339 5.10087 13.4113 5.3263 13.4553 5.54379C13.4993 5.76127 13.6078 5.96105 13.7672 6.11785C13.9266 6.27464 14.1297 6.38143 14.3508 6.42469C14.5719 6.46795 14.801 6.44574 15.0093 6.36088C15.2176 6.27603 15.3956 6.13232 15.5208 5.94795C15.646 5.76357 15.7129 5.5468 15.7129 5.32506C15.7129 5.0277 15.5928 4.74253 15.3791 4.53227C15.1653 4.32201 14.8754 4.20389 14.5731 4.20389ZM9.5013 5.51489C8.53618 5.51414 7.59252 5.79497 6.78968 6.32187C5.98685 6.84878 5.3609 7.59807 4.99104 8.47498C4.62117 9.35189 4.524 10.317 4.71181 11.2482C4.89963 12.1795 5.36399 13.035 6.04615 13.7066C6.72832 14.3782 7.59765 14.8357 8.54416 15.0212C9.49067 15.2067 10.4719 15.1118 11.3636 14.7487C12.2553 14.3855 13.0175 13.7704 13.5538 12.9811C14.09 12.1917 14.3763 11.2637 14.3763 10.3143C14.3763 9.0414 13.8623 7.82066 12.9473 6.9206C12.0323 6.02054 10.7914 5.51489 9.49741 5.51489H9.5013ZM9.5013 7.1992C10.1276 7.1992 10.7398 7.38189 11.2606 7.72418C11.7814 8.06647 12.1872 8.55298 12.4269 9.12219C12.6666 9.69139 12.7293 10.3177 12.6071 10.922C12.4849 11.5263 12.1833 12.0813 11.7405 12.517C11.2976 12.9526 10.7334 13.2493 10.1191 13.3695C9.50481 13.4897 8.8681 13.428 8.28946 13.1922C7.71083 12.9565 7.21627 12.5572 6.86831 12.0449C6.52035 11.5326 6.33463 10.9304 6.33463 10.3143C6.33446 9.90509 6.41624 9.49988 6.57531 9.1218C6.73437 8.74371 6.9676 8.40016 7.26166 8.11076C7.55573 7.82136 7.90488 7.59179 8.28917 7.43517C8.67345 7.27854 9.08533 7.1992 9.5013 7.1992Z" fill="#ECECEC"/>
</svg>
