<svg width="25" height="20" viewBox="0 0 25 20" fill="none" xmlns="http://www.w3.org/2000/svg">
<path d="M0 17.2826C2.19607 18.6663 4.73659 19.4295 7.34384 19.4887C9.95109 19.5479 12.5247 18.9009 14.7834 17.6184C17.0421 16.3359 18.8988 14.4672 20.1507 12.2167C21.4026 9.9661 22.0014 7.42029 21.8818 4.85753C22.8609 4.1605 23.7054 3.29662 24.375 2.30679C23.4625 2.70521 22.4943 2.96616 21.5028 3.08084C22.5459 2.46599 23.3258 1.49862 23.6968 0.359419C22.7153 0.93272 21.6414 1.33683 20.5214 1.55433C19.7678 0.764283 18.7703 0.240866 17.6836 0.065175C16.5968 -0.110516 15.4815 0.0713222 14.5105 0.582557C13.5395 1.09379 12.7671 1.90584 12.3129 2.89282C11.8587 3.87981 11.7482 4.98662 11.9985 6.04166C10.0098 5.94403 8.06419 5.43575 6.28824 4.54991C4.51229 3.66406 2.94574 2.42047 1.69043 0.899973C1.04972 1.98363 0.853126 3.26683 1.14071 4.48811C1.4283 5.70939 2.17841 6.77687 3.23823 7.47303C2.44382 7.44824 1.66695 7.23698 0.972373 6.85691C0.958181 8.00338 1.35107 9.11882 2.0833 10.0109C2.81553 10.9029 3.84121 11.5157 4.9835 11.7435C4.24727 11.9409 3.47482 11.9694 2.72562 11.8269C3.04448 12.8047 3.66631 13.6599 4.504 14.2727C5.34168 14.8854 6.35326 15.225 7.39698 15.2439C5.30283 16.8598 2.64277 17.593 0 17.2826Z" fill="#0B6AA1"/>
</svg>
