<svg width="24" height="26" viewBox="0 0 24 26" fill="none" xmlns="http://www.w3.org/2000/svg">
<path d="M17 0.5L23.25 6.75V24.26C23.2497 24.589 23.1187 24.9044 22.886 25.1369C22.6533 25.3694 22.3377 25.5 22.0088 25.5H1.99125C1.66297 25.4977 1.34877 25.3664 1.11652 25.1344C0.884272 24.9023 0.752618 24.5883 0.75 24.26V1.74C0.75 1.055 1.30625 0.5 1.99125 0.5H17ZM12 12.375C12.8288 12.375 13.6237 12.0458 14.2097 11.4597C14.7958 10.8737 15.125 10.0788 15.125 9.25C15.125 8.4212 14.7958 7.62634 14.2097 7.04029C13.6237 6.45424 12.8288 6.125 12 6.125C11.1712 6.125 10.3763 6.45424 9.79029 7.04029C9.20424 7.62634 8.875 8.4212 8.875 9.25C8.875 10.0788 9.20424 10.8737 9.79029 11.4597C10.3763 12.0458 11.1712 12.375 12 12.375ZM6.40875 19.25H17.5912C17.4397 17.873 16.7854 16.6003 15.7537 15.6759C14.7219 14.7515 13.3853 14.2403 12 14.2403C10.6147 14.2403 9.2781 14.7515 8.24635 15.6759C7.2146 16.6003 6.56028 17.873 6.40875 19.25Z" fill="black"/>
</svg>
