<svg width="26" height="25" viewBox="0 0 26 25" fill="none" xmlns="http://www.w3.org/2000/svg">
<path d="M12.9998 24.4998C11.5225 24.4998 10.0596 24.2089 8.69466 23.6435C7.32974 23.0781 6.08955 22.2495 5.04489 21.2048C4.00023 20.1601 3.17156 18.9199 2.6062 17.555C2.04083 16.1901 1.74984 14.7272 1.74984 13.2498C1.74984 11.7725 2.04083 10.3096 2.6062 8.94466C3.17156 7.57974 4.00023 6.33955 5.04489 5.29489C6.08955 4.25023 7.32974 3.42156 8.69466 2.8562C10.0596 2.29083 11.5225 1.99984 12.9998 1.99984C15.9835 1.99984 18.845 3.18511 20.9548 5.29489C23.0646 7.40468 24.2498 10.2662 24.2498 13.2498C24.2498 16.2335 23.0646 19.095 20.9548 21.2048C18.845 23.3146 15.9835 24.4998 12.9998 24.4998ZM14.2498 13.2498V6.99984H11.7498V15.7498H17.9998V13.2498H14.2498ZM0.183594 4.85234L4.60234 0.433594L6.37109 2.20109L1.94984 6.62109L0.183594 4.85234ZM21.3961 0.433594L25.8161 4.85234L24.0486 6.62109L19.6286 2.20109L21.3973 0.433594H21.3961Z" fill="black"/>
</svg>
