<svg width="22" height="24" viewBox="0 0 22 24" fill="none" xmlns="http://www.w3.org/2000/svg">
<path d="M17.1111 16.8H19.5556V2.4H7.33333V4.8H17.1111V16.8ZM17.1111 19.2V22.8C17.1111 23.4624 16.5611 24 15.8803 24H1.23078C1.0696 24.0009 0.909819 23.9706 0.760616 23.9107C0.611413 23.8509 0.47573 23.7626 0.36136 23.6511C0.246991 23.5396 0.156191 23.407 0.0941774 23.261C0.0321635 23.1149 0.000158124 22.9582 0 22.8L0.00366669 5.99999C0.00366669 5.3376 0.553667 4.8 1.23444 4.8H4.88889V1.2C4.88889 0.881739 5.01766 0.576515 5.24687 0.351472C5.47608 0.126428 5.78696 0 6.11111 0H20.7778C21.1019 0 21.4128 0.126428 21.642 0.351472C21.8712 0.576515 22 0.881739 22 1.2V18C22 18.3182 21.8712 18.6235 21.642 18.8485C21.4128 19.0736 21.1019 19.2 20.7778 19.2H17.1111ZM4.88889 16.8V19.2H7.33333V20.4H9.77778V19.2H10.3889C11.1993 19.2 11.9765 18.8839 12.5495 18.3213C13.1225 17.7587 13.4444 16.9956 13.4444 16.2C13.4444 15.4043 13.1225 14.6413 12.5495 14.0787C11.9765 13.5161 11.1993 13.2 10.3889 13.2H6.72222C6.56015 13.2 6.40471 13.1368 6.2901 13.0243C6.1755 12.9117 6.11111 12.7591 6.11111 12.6C6.11111 12.4409 6.1755 12.2882 6.2901 12.1757C6.40471 12.0632 6.56015 12 6.72222 12H12.2222V9.59999H9.77778V8.39999H7.33333V9.59999H6.72222C5.91184 9.59999 5.13465 9.91606 4.56162 10.4787C3.98859 11.0413 3.66667 11.8043 3.66667 12.6C3.66667 13.3956 3.98859 14.1587 4.56162 14.7213C5.13465 15.2839 5.91184 15.6 6.72222 15.6H10.3889C10.551 15.6 10.7064 15.6632 10.821 15.7757C10.9356 15.8882 11 16.0409 11 16.2C11 16.3591 10.9356 16.5117 10.821 16.6243C10.7064 16.7368 10.551 16.8 10.3889 16.8H4.88889Z" fill="#ED1C24"/>
</svg>
