<svg width="24" height="28" viewBox="0 0 24 28" fill="none" xmlns="http://www.w3.org/2000/svg">
<path d="M19.955 19.7049L12 27.6599L4.04501 19.7049C2.47168 18.1316 1.40023 16.127 0.966161 13.9447C0.532088 11.7624 0.754884 9.50044 1.60637 7.44478C2.45786 5.38912 3.8998 3.63212 5.74985 2.39596C7.5999 1.1598 9.77497 0.5 12 0.5C14.225 0.5 16.4001 1.1598 18.2502 2.39596C20.1002 3.63212 21.5421 5.38912 22.3936 7.44478C23.2451 9.50044 23.4679 11.7624 23.0338 13.9447C22.5998 16.127 21.5283 18.1316 19.955 19.7049ZM12 16.7499C13.3261 16.7499 14.5979 16.2231 15.5355 15.2854C16.4732 14.3478 17 13.076 17 11.7499C17 10.4238 16.4732 9.15205 15.5355 8.21437C14.5979 7.27669 13.3261 6.7499 12 6.7499C10.6739 6.7499 9.40215 7.27669 8.46447 8.21437C7.52679 9.15205 7 10.4238 7 11.7499C7 13.076 7.52679 14.3478 8.46447 15.2854C9.40215 16.2231 10.6739 16.7499 12 16.7499ZM12 14.2499C11.337 14.2499 10.7011 13.9865 10.2322 13.5177C9.7634 13.0488 9.5 12.4129 9.5 11.7499C9.5 11.0869 9.7634 10.451 10.2322 9.98214C10.7011 9.5133 11.337 9.2499 12 9.2499C12.663 9.2499 13.2989 9.5133 13.7678 9.98214C14.2366 10.451 14.5 11.0869 14.5 11.7499C14.5 12.4129 14.2366 13.0488 13.7678 13.5177C13.2989 13.9865 12.663 14.2499 12 14.2499Z" fill="black"/>
</svg>
