<?xml version="1.0" standalone="no"?>
<!DOCTYPE svg PUBLIC "-//W3C//DTD SVG 1.1//EN" "http://www.w3.org/Graphics/SVG/1.1/DTD/svg11.dtd" >
<svg xmlns="http://www.w3.org/2000/svg">
<metadata>Generated by IcoMoon</metadata>
<defs>
<font id="icomoon" horiz-adv-x="1024">
<font-face units-per-em="1024" ascent="960" descent="-64" />
<missing-glyph horiz-adv-x="1024" />
<glyph unicode="&#x20;" horiz-adv-x="512" d="" />
<glyph unicode="&#xe900;" glyph-name="uniE900" horiz-adv-x="819" d="M318.903-64c-27.307 0-49.737 8.29-67.291 24.869-17.554 17.554-26.331 39.010-26.331 64.366v737.28l20.48-32.183-106.789-78.994c-13.653-10.727-30.72-16.091-51.2-16.091-23.406 0-43.886 8.777-61.44 26.331s-26.331 38.521-26.331 62.903c0 31.207 15.116 56.564 45.349 76.069l210.651 140.434c9.753 6.827 20.48 11.703 32.183 14.629 12.679 2.926 24.381 4.389 35.109 4.389 28.281 0 50.713-8.777 67.291-26.331 16.579-16.579 24.869-37.547 24.869-62.903v-845.532c0-25.356-9.264-46.811-27.794-64.366-17.554-16.579-40.473-24.869-68.754-24.869zM711.932-62.537c-28.281 0-50.224 7.314-65.829 21.943-14.629 15.604-21.943 37.547-21.943 65.829v24.869c0 28.281 7.314 49.737 21.943 64.366 15.604 15.604 37.547 23.406 65.829 23.406h19.017c28.281 0 49.737-7.801 64.366-23.406 15.604-14.629 23.406-36.084 23.406-64.366v-24.869c0-28.281-7.801-50.224-23.406-65.829-14.629-14.629-36.084-21.943-64.366-21.943h-19.017z" />
<glyph unicode="&#xe901;" glyph-name="uniE901" horiz-adv-x="1038" d="M588.439 94.648c23.076 0 42.306-7.692 57.69-23.076s23.076-34.614 23.076-57.69c0-22.114-7.692-40.863-23.076-56.248-15.385-14.423-34.614-21.634-57.69-21.634h-490.366c-24.999 0-44.71 7.692-59.132 23.076s-21.634 35.094-21.634 59.132c0 24.038 8.654 45.19 25.961 63.459l314.411 336.045c35.576 38.461 63.459 77.882 83.651 118.265 21.154 40.383 31.73 75.477 31.73 105.285 0 48.075-13.942 86.535-41.825 115.38-27.883 29.807-64.901 44.71-111.054 44.71-18.269 0-37.018-4.327-56.248-12.98s-37.979-20.672-56.248-36.056c-17.307-15.385-33.652-33.172-49.037-53.363-11.538-15.385-23.076-24.999-34.614-28.845s-22.115-5.769-31.73-5.769c-21.153 0-40.864 7.692-59.132 23.076-17.307 16.345-25.961 35.094-25.961 56.248 0 16.345 5.288 32.21 15.865 47.594 11.538 15.385 25.48 31.249 41.825 47.594 24.038 24.038 50.96 45.191 80.766 63.459s60.575 32.21 92.304 41.825c31.73 10.576 62.497 15.865 92.304 15.865 64.421 0 120.187-12.98 167.301-38.941 48.075-24.999 85.093-61.055 111.054-108.169 25.961-46.152 38.941-100.958 38.941-164.417 0-52.883-15.865-112.016-47.594-177.397-30.768-64.421-72.593-124.996-125.476-181.724l-194.704-207.685-15.865 12.98h324.507zM919.2-62.558c-27.883 0-49.517 7.211-64.901 21.634-14.423 15.385-21.634 37.018-21.634 64.901v24.518c0 27.883 7.211 49.037 21.634 63.459 15.385 15.385 37.018 23.076 64.901 23.076h18.749c27.883 0 49.037-7.692 63.459-23.076 15.385-14.423 23.076-35.576 23.076-63.459v-24.518c0-27.883-7.692-49.517-23.076-64.901-14.423-14.423-35.576-21.634-63.459-21.634h-18.749z" />
<glyph unicode="&#xe902;" glyph-name="uniE902" horiz-adv-x="995" d="M103.842 153.78c8.654 0 17.788-1.442 27.403-4.327 10.576-2.885 22.114-8.654 34.614-17.307 16.345-12.5 35.576-23.556 57.69-33.172 23.076-9.616 49.517-14.423 79.324-14.423s57.69 7.211 83.651 21.634c26.923 15.385 49.037 36.537 66.344 63.459 17.307 27.883 25.961 61.055 25.961 99.515 0 36.537-7.692 66.824-23.076 90.862-14.423 24.038-34.134 42.306-59.132 54.806-24.038 12.5-49.999 18.749-77.882 18.749-21.154 0-38.941-1.923-53.363-5.769-13.461-3.846-26.923-8.173-40.383-12.98-12.5-3.846-27.403-5.769-44.71-5.769-22.114 0-39.422 7.692-51.921 23.076-11.538 15.385-17.307 33.652-17.307 54.806 0 13.461 2.404 25.48 7.211 36.056 5.769 10.576 13.942 22.114 24.518 34.614l253.837 269.701 38.941-33.172h-354.794c-23.076 0-42.306 7.692-57.69 23.076s-23.076 34.614-23.076 57.69c0 22.115 7.692 40.383 23.076 54.806 15.384 15.384 34.614 23.076 57.69 23.076h441.33c29.807 0 51.921-8.173 66.344-24.518 15.385-16.345 23.076-37.018 23.076-62.017 0-12.5-3.365-24.999-10.096-37.499-6.731-11.538-14.903-22.114-24.518-31.73l-255.279-274.028-38.941 49.037c10.576 4.807 24.999 9.134 43.268 12.98 19.23 3.846 35.094 5.769 47.594 5.769 56.728 0 105.765-14.903 147.11-44.71 42.306-28.845 74.517-66.824 96.631-113.938 23.076-46.152 34.614-96.151 34.614-149.994 0-71.151-15.865-132.687-47.594-184.608s-76.439-91.824-134.13-119.707c-57.69-27.883-124.996-41.825-201.915-41.825-35.576 0-70.67 4.327-105.285 12.98s-64.421 20.192-89.42 34.614c-21.153 11.538-35.576 24.038-43.268 37.499-6.731 14.423-10.096 27.883-10.096 40.383 0 22.114 7.692 42.787 23.076 62.017 16.345 20.192 36.537 30.287 60.575 30.287zM887.143-48.135c-27.883 0-49.517 7.211-64.901 21.634-14.423 15.385-21.634 37.018-21.634 64.901v24.518c0 27.883 7.211 49.037 21.634 63.459 15.385 15.385 37.018 23.076 64.901 23.076h18.749c27.885 0 49.037-7.692 63.459-23.076 15.385-14.423 23.076-35.576 23.076-63.459v-24.518c0-27.883-7.692-49.517-23.076-64.901-14.423-14.423-35.575-21.634-63.459-21.634h-18.749z" />
<glyph unicode="&#xe903;" glyph-name="uniE903" horiz-adv-x="1126" d="M554.423-64c-24.381 0-44.861 8.29-61.44 24.869-16.579 17.554-24.869 39.010-24.869 64.366v687.543l30.72-7.314-282.331-349.623-7.314 19.017h517.851c23.406 0 42.91-7.801 58.514-23.406s23.406-35.109 23.406-58.514c0-22.43-7.801-41.447-23.406-57.051-15.604-14.629-35.109-21.943-58.514-21.943h-639.269c-20.48 0-40.472 8.29-59.977 24.869-18.53 16.579-27.794 37.059-27.794 61.44 0 21.456 7.314 40.96 21.943 58.514l462.263 566.126c7.801 10.728 18.041 19.017 30.72 24.868 12.679 6.827 26.819 10.24 42.423 10.24 25.356 0 45.836-8.777 61.44-26.331 16.579-16.579 24.869-37.547 24.869-62.903v-845.532c0-25.356-8.777-46.811-26.331-64.366-16.579-16.579-37.547-24.869-62.903-24.869zM1017.989-62.537c-28.283 0-50.226 7.314-65.829 21.943-14.629 15.604-21.943 37.547-21.943 65.829v24.869c0 28.281 7.314 49.737 21.943 64.366 15.603 15.604 37.546 23.406 65.829 23.406h19.017c28.281 0 49.737-7.801 64.366-23.406 15.603-14.629 23.406-36.084 23.406-64.366v-24.869c0-28.281-7.803-50.224-23.406-65.829-14.629-14.629-36.084-21.943-64.366-21.943h-19.017z" />
<glyph unicode="&#xe904;" glyph-name="Path-7" horiz-adv-x="1280" d="M0 75.131c112.439-70.845 242.513-109.921 376.005-112.952s265.26 30.095 380.905 95.759c115.645 65.664 210.708 161.341 274.806 276.567 64.097 115.231 94.756 245.576 88.632 376.79 50.13 35.688 93.368 79.919 127.652 130.598-46.72-20.399-96.292-33.76-147.057-39.631 53.407 31.48 93.338 81.010 112.333 139.337-50.253-29.353-105.236-50.043-162.58-61.179-38.584 40.45-89.656 67.249-145.295 76.245-55.644 8.995-112.748-0.315-162.463-26.49s-89.262-67.752-112.517-118.285c-23.255-50.534-28.913-107.203-16.097-161.221-101.821 4.999-201.437 31.023-292.365 76.378s-171.136 109.027-235.408 186.877c-32.804-55.483-42.87-121.183-28.146-183.713s53.13-117.185 107.393-152.828c-40.674 1.269-80.45 12.086-116.012 31.545-0.727-58.699 19.389-115.81 56.879-161.484 37.49-45.67 90.005-77.046 148.49-88.709-37.695-10.107-77.244-11.566-115.603-4.27 16.326-50.063 48.163-93.85 91.053-125.225 42.889-31.37 94.682-48.758 148.121-49.725-107.22-82.734-243.416-120.274-378.725-104.381z" />
<glyph unicode="&#xe905;" glyph-name="Path-8" horiz-adv-x="485" d="M109.313-54.358h210.114v511.52h146.582l15.571 171.255h-162.153v97.729c0 40.389 8.357 56.166 48.532 56.166h113.725v177.688h-145.336c-156.392 0-226.88-66.887-226.88-195.048v-136.535h-109.469v-173.604h109.313v-509.172z" />
<glyph unicode="&#xe906;" glyph-name="Path-170" horiz-adv-x="973" d="M486.467 910.45c-132.094 0-148.672-0.587-200.594-2.87-40.34-0.799-80.251-8.321-118.036-22.244-32.316-12.29-61.667-31.085-86.173-55.179s-43.625-52.959-56.133-84.743c-14.185-37.16-21.832-76.426-22.612-116.113-2.321-51.011-2.918-67.384-2.918-197.326 0-129.94 0.597-146.186 2.918-197.263 0.822-39.68 8.468-78.94 22.612-116.111 12.501-31.785 31.609-60.657 56.102-84.762s53.831-42.911 86.138-55.224c37.807-13.926 77.74-21.448 118.102-22.246 51.856-2.345 68.434-2.867 200.528-2.867 132.096 0 148.669 0.584 200.53 2.867 40.361 0.804 80.292 8.325 118.098 22.246 32.297 12.329 61.629 31.145 86.118 55.25 24.489 24.1 43.607 52.961 56.125 84.736 14.085 37.187 21.729 76.436 22.61 116.111 2.319 51.016 2.918 67.323 2.918 197.263 0 129.942-0.599 146.25-2.918 197.326-0.876 39.676-8.52 78.926-22.61 116.113-12.513 31.782-31.636 60.644-56.141 84.739s-53.852 42.89-86.17 55.183c-37.832 13.918-77.783 21.438-118.164 22.244-51.855 2.348-68.434 2.87-200.529 2.87h0.199zM442.833 824.214h43.634c129.905 0 145.29-0.457 196.547-2.74 30.848-0.372 61.399-5.955 90.322-16.504 20.972-7.967 40.018-20.161 55.91-35.799 15.898-15.638 28.293-34.374 36.393-55.004 10.737-28.449 16.41-58.503 16.778-88.846 2.319-50.424 2.852-65.623 2.852-193.281 0-127.662-0.532-142.858-2.852-193.285-0.374-30.341-6.047-60.396-16.778-88.842-8.115-20.618-20.516-39.337-36.408-54.958-15.898-15.626-34.934-27.812-55.895-35.784-28.933-10.496-59.484-16.015-90.322-16.307-51.256-2.284-66.708-2.806-196.547-2.806s-145.29 0.522-196.55 2.806c-30.843 0.384-61.392 5.965-90.317 16.507-20.986 7.956-40.047 20.142-55.956 35.784-15.909 15.636-28.314 34.381-36.417 55.020-10.734 28.447-16.409 58.501-16.777 88.842-2.321 50.427-2.785 65.623-2.785 193.347 0 127.726 0.464 142.86 2.785 193.284 0.378 30.342 6.053 60.394 16.777 88.846 8.099 20.649 20.502 39.401 36.41 55.051s34.972 27.85 55.963 35.817c28.92 10.56 59.472 16.143 90.317 16.503 44.893 2.022 62.267 2.61 152.916 2.675v-0.326zM746.143 744.761c-11.54 0-22.82-3.366-32.42-9.674-9.595-6.307-17.075-15.273-21.489-25.762-4.419-10.489-5.576-22.031-3.323-33.167s7.808-21.364 15.969-29.392c8.161-8.028 18.56-13.495 29.88-15.71s23.050-1.078 33.715 3.267c10.665 4.344 19.779 11.702 26.189 21.142s9.836 20.539 9.836 31.892c0 15.225-6.149 29.826-17.091 40.591-10.947 10.765-25.789 16.813-41.267 16.813zM486.467 677.638c-49.414 0.038-97.73-14.34-138.835-41.317s-73.154-65.341-92.090-110.239c-18.937-44.898-23.912-94.311-14.297-141.989 9.616-47.683 33.392-91.484 68.318-125.87s79.437-57.81 127.898-67.308c48.461-9.498 98.7-4.639 144.355 13.952 45.655 18.596 84.68 50.089 112.138 90.501 27.453 40.417 42.112 87.931 42.112 136.54 0 65.172-26.317 127.674-73.165 173.757s-110.382 71.972-176.634 71.972h0.199zM486.467 591.401c32.067 0 63.411-9.354 90.076-26.879s47.442-42.435 59.715-71.578c12.273-29.143 15.483-61.21 9.226-92.15s-21.699-59.356-44.37-81.664c-22.676-22.303-51.564-37.494-83.016-43.648s-64.051-2.995-93.678 9.078c-29.626 12.068-54.947 32.512-72.763 58.742s-27.324 57.062-27.324 88.607c-0.009 20.952 4.178 41.698 12.323 61.056s20.085 36.948 35.141 51.765c15.056 14.817 32.933 26.571 52.609 34.59s40.763 12.082 62.061 12.082z" />
<glyph unicode="&#xe907;" glyph-name="Vector-2" horiz-adv-x="1390" d="M472.28 959.996c-261.752 0-472.28-215.415-472.28-483.317v-540.679h555.893v564.97h-312.695v51.869c0 60.985 86.273 159.999 182.41 159.999h130.286v247.162l-83.613-0.004zM1306.101 959.996c-261.753 0-472.28-215.415-472.28-483.317v-540.679h555.893v564.97h-312.671v51.869c0 60.985 86.276 159.999 182.385 159.999h130.286v247.162l-83.613-0.004z" />
<glyph unicode="&#xe908;" glyph-name="Vector-3" horiz-adv-x="878" d="M729.783 239.364l-290.926-290.926-290.925 290.926c-57.539 57.538-96.723 130.849-112.598 210.659s-7.727 162.533 23.413 237.711c31.14 75.178 83.874 139.434 151.533 184.643s147.204 69.338 228.577 69.338c81.371 0 160.918-24.13 228.579-69.338 67.657-45.208 120.389-109.464 151.53-184.643s39.289-157.902 23.413-237.711c-15.872-79.81-55.058-153.121-112.596-210.659zM438.857 347.432c48.497 0 95.009 19.266 129.298 53.559 34.293 34.289 53.559 80.801 53.559 129.298s-19.266 95.007-53.559 129.299c-34.289 34.292-80.801 53.558-129.298 53.558s-95.007-19.265-129.299-53.558c-34.292-34.292-53.558-80.802-53.558-129.299s19.265-95.009 53.558-129.298c34.292-34.293 80.802-53.559 129.299-53.559zM438.857 438.861c-24.247 0-47.503 9.633-64.651 26.778-17.145 17.148-26.778 40.404-26.778 64.651s9.633 47.503 26.778 64.65c17.148 17.146 40.404 26.779 64.651 26.779s47.503-9.633 64.651-26.779c17.145-17.147 26.778-40.403 26.778-64.65s-9.633-47.503-26.778-64.651c-17.148-17.145-40.404-26.778-64.651-26.778z" />
<glyph unicode="&#xe909;" glyph-name="Vector-4" horiz-adv-x="1065" d="M532.472-43.512c-60.51 0-120.431 11.915-176.339 35.074s-106.705 57.098-149.495 99.889c-42.789 42.791-76.732 93.59-99.889 149.496s-35.077 115.827-35.077 176.341c0 60.51 11.919 120.431 35.077 176.339s57.099 106.705 99.889 149.495c42.789 42.789 93.587 76.732 149.495 99.889s115.828 35.077 176.339 35.077c122.212 0 239.419-48.549 325.837-134.965s134.963-203.625 134.963-325.833c0-122.212-48.546-239.419-134.963-325.837s-203.624-134.963-325.837-134.963zM583.672 417.288v255.998h-102.4v-358.398h256v102.4h-153.6zM7.52 761.248l180.992 180.992 72.448-72.397-181.094-181.043-72.345 72.448zM876.384 942.24l181.043-180.992-72.397-72.448-181.043 181.043 72.397 72.397z" />
<glyph unicode="&#xe90a;" glyph-name="Vector-5" horiz-adv-x="939" d="M730.074 243.2h104.299v614.4h-521.484v-102.4h417.185v-512zM730.074 140.8v-153.6c0-28.262-23.467-51.2-52.514-51.2h-625.046c-6.877-0.038-13.694 1.254-20.060 3.81-6.366 2.551-12.155 6.319-17.035 11.076s-8.754 10.415-11.4 16.644c-2.646 6.234-4.011 12.919-4.018 19.669l0.156 716.8c0 28.262 23.467 51.2 52.513 51.2h155.923v153.6c0 13.579 5.494 26.602 15.274 36.204s23.044 14.996 36.874 14.996h625.779c13.828 0 27.093-5.394 36.873-14.996s15.275-22.625 15.275-36.204v-716.8c0-13.577-5.495-26.603-15.275-36.203-9.779-9.604-23.044-14.997-36.873-14.997h-156.446zM208.593 243.2v-102.4h104.296v-51.2h104.297v51.2h26.074c34.577 0 67.738 13.487 92.186 37.491s38.182 56.563 38.182 90.509c0 33.95-13.734 66.505-38.182 90.509s-57.609 37.491-92.186 37.491h-156.445c-6.915 0-13.547 2.697-18.437 7.497-4.89 4.804-7.637 11.315-7.637 18.103s2.747 13.303 7.637 18.103c4.89 4.8 11.522 7.497 18.437 7.497h234.666v102.4h-104.295v51.2h-104.297v-51.2h-26.074c-34.576 0-67.736-13.486-92.186-37.492-24.449-24.004-38.185-56.559-38.185-90.509 0-33.946 13.735-66.505 38.185-90.509s57.609-37.491 92.186-37.491h156.445c6.916 0 13.547-2.697 18.436-7.497s7.637-11.315 7.637-18.103c0-6.788-2.748-13.299-7.637-18.103-4.89-4.8-11.52-7.497-18.436-7.497h-234.667z" />
<glyph unicode="&#xe90b;" glyph-name="Vector-6" horiz-adv-x="945" d="M669.538 940.308l246.154-246.154v-689.625c-0.012-12.958-5.171-25.379-14.336-34.536s-21.595-14.301-34.548-14.301h-788.384c-12.929 0.091-25.304 5.262-34.451 14.399-9.147 9.141-14.332 21.508-14.435 34.438v886.942c0 26.978 21.908 48.837 48.886 48.837h591.114zM472.615 472.615c32.642 0 63.949 12.965 87.028 36.049 23.083 23.079 36.049 54.386 36.049 87.028s-12.965 63.947-36.049 87.029c-23.079 23.081-54.386 36.048-87.028 36.048s-63.949-12.967-87.029-36.048c-23.081-23.081-36.048-54.387-36.048-87.029s12.967-63.949 36.048-87.028c23.080-23.083 54.387-36.049 87.029-36.049zM252.406 201.846h440.416c-5.967 54.233-31.736 104.357-72.369 140.765-40.637 36.407-93.279 56.541-147.838 56.541s-107.201-20.133-147.836-56.541c-40.635-36.407-66.405-86.532-72.373-140.765z" />
<glyph unicode="&#xe90c;" glyph-name="Vector-7" horiz-adv-x="878" d="M729.783 239.364l-290.926-290.926-290.925 290.926c-57.539 57.538-96.723 130.849-112.598 210.659s-7.727 162.533 23.413 237.711c31.14 75.178 83.874 139.434 151.533 184.643s147.204 69.338 228.577 69.338c81.371 0 160.918-24.13 228.579-69.338 67.657-45.208 120.389-109.464 151.53-184.643s39.289-157.902 23.413-237.711c-15.872-79.81-55.058-153.121-112.596-210.659zM438.857 347.432c48.497 0 95.009 19.266 129.298 53.559 34.293 34.289 53.559 80.801 53.559 129.298s-19.266 95.007-53.559 129.299c-34.289 34.292-80.801 53.558-129.298 53.558s-95.007-19.265-129.299-53.558c-34.292-34.292-53.558-80.802-53.558-129.299s19.265-95.009 53.558-129.298c34.292-34.293 80.802-53.559 129.299-53.559zM438.857 438.861c-24.247 0-47.503 9.633-64.651 26.778-17.145 17.148-26.778 40.404-26.778 64.651s9.633 47.503 26.778 64.65c17.148 17.146 40.404 26.779 64.651 26.779s47.503-9.633 64.651-26.779c17.145-17.147 26.778-40.403 26.778-64.65s-9.633-47.503-26.778-64.651c-17.148-17.145-40.404-26.778-64.651-26.778z" />
<glyph unicode="&#xe90d;" glyph-name="Vector-8" horiz-adv-x="1065" d="M532.472-43.512c-60.51 0-120.431 11.915-176.339 35.074s-106.705 57.098-149.495 99.889c-42.789 42.791-76.732 93.59-99.889 149.496s-35.077 115.827-35.077 176.341c0 60.51 11.919 120.431 35.077 176.339s57.099 106.705 99.889 149.495c42.789 42.789 93.587 76.732 149.495 99.889s115.828 35.077 176.339 35.077c122.212 0 239.419-48.549 325.837-134.965s134.963-203.625 134.963-325.833c0-122.212-48.546-239.419-134.963-325.837s-203.624-134.963-325.837-134.963zM583.672 417.288v255.998h-102.4v-358.398h256v102.4h-153.6zM7.52 761.248l180.992 180.992 72.448-72.397-181.094-181.043-72.345 72.448zM876.384 942.24l181.043-180.992-72.397-72.448-181.043 181.043 72.397 72.397z" />
<glyph unicode="&#xe90e;" glyph-name="Vector-9" horiz-adv-x="939" d="M730.074 243.2h104.299v614.4h-521.484v-102.4h417.185v-512zM730.074 140.8v-153.6c0-28.262-23.467-51.2-52.514-51.2h-625.046c-6.877-0.038-13.694 1.254-20.060 3.81-6.366 2.551-12.155 6.319-17.035 11.076s-8.754 10.415-11.4 16.644c-2.646 6.234-4.011 12.919-4.018 19.669l0.156 716.8c0 28.262 23.467 51.2 52.513 51.2h155.923v153.6c0 13.579 5.494 26.602 15.274 36.204s23.044 14.996 36.874 14.996h625.779c13.828 0 27.093-5.394 36.873-14.996s15.275-22.625 15.275-36.204v-716.8c0-13.577-5.495-26.603-15.275-36.203-9.779-9.604-23.044-14.997-36.873-14.997h-156.446zM208.593 243.2v-102.4h104.296v-51.2h104.297v51.2h26.074c34.577 0 67.738 13.487 92.186 37.491s38.182 56.563 38.182 90.509c0 33.95-13.734 66.505-38.182 90.509s-57.609 37.491-92.186 37.491h-156.445c-6.915 0-13.547 2.697-18.437 7.497-4.89 4.804-7.637 11.315-7.637 18.103s2.747 13.303 7.637 18.103c4.89 4.8 11.522 7.497 18.437 7.497h234.666v102.4h-104.295v51.2h-104.297v-51.2h-26.074c-34.576 0-67.736-13.486-92.186-37.492-24.449-24.004-38.185-56.559-38.185-90.509 0-33.946 13.735-66.505 38.185-90.509s57.609-37.491 92.186-37.491h156.445c6.916 0 13.547-2.697 18.436-7.497s7.637-11.315 7.637-18.103c0-6.788-2.748-13.299-7.637-18.103-4.89-4.8-11.52-7.497-18.436-7.497h-234.667z" />
<glyph unicode="&#xe90f;" glyph-name="Vector-10" horiz-adv-x="956" d="M682.667 960l256-256v-717.21c-0.014-13.476-5.376-26.395-14.909-35.919s-22.456-14.872-35.932-14.872h-819.917c-13.446 0.092-26.316 5.475-35.829 14.978s-14.905 22.368-15.013 35.813v922.419c0 28.058 22.784 50.79 50.842 50.79h614.758zM529.067 448h153.6l-204.8 204.8-204.8-204.8h153.6v-204.8h102.4v204.8z" />
<glyph unicode="&#xe910;" glyph-name="Vector-11" horiz-adv-x="1138" d="M113.778 49.778h910.222v398.222h113.778v-455.111c0-15.087-5.996-29.559-16.663-40.226s-25.139-16.663-40.226-16.663h-1024c-15.088 0-29.558 5.996-40.227 16.663s-16.662 25.139-16.662 40.226v455.111h113.778v-398.222zM625.778 618.667v-398.222h-113.778v398.222h-284.444l341.333 341.333 341.333-341.333h-284.444z" />
<glyph unicode="&#xe911;" glyph-name="Vector-search" d="M781.702 247.247l208.847-208.798-68.998-68.998-208.798 208.847c-77.692-62.279-174.324-96.154-273.896-96.012-242.249 0-438.857 196.608-438.857 438.857s196.608 438.857 438.857 438.857c242.249 0 438.857-196.608 438.857-438.857 0.141-99.572-33.733-196.203-96.012-273.896zM683.886 283.429c61.884 63.639 96.446 148.948 96.305 237.714 0 188.611-152.771 341.333-341.333 341.333-188.611 0-341.333-152.722-341.333-341.333 0-188.562 152.722-341.333 341.333-341.333 88.766-0.141 174.075 34.421 237.714 96.305l7.314 7.314z" />
<glyph unicode="&#xe912;" glyph-name="Frame-2035" d="M465.25 207.61c4.032-6.046 6.54-21.072 1.29-30.87-1.254-2.345-5.088-9.511-20.578-9.511h-75.745l21.352 21.351-23.351 23.351-59.671-59.671 58.138-77.522 26.426 19.804-29.729 39.654h82.581c30.688 0 44.327 16.877 49.711 26.956 11.643 21.75 7.183 49.613-2.942 64.795l-27.48-18.338zM289.344 263.031l8.442-33.74 32.023 7.993-19.628 78.599h-95.477v-33.031h48.214l-44.098-55.131c-13.855-14.583-18.036-40.435-9.66-60.645 8.649-20.88 28.72-32.87 55.095-32.87h16.516v33.033h-16.516c-12.881 0-21.14 4.196-24.576 12.483-3.967 9.563-0.745 21.42 3.221 25.386l46.443 57.924zM461.114 284.067l-34.486 57.46-2.359 3.745c-7.868 12.808-22.533 36.638-60.932 36.638s-53.066-23.831-60.925-36.653l-2.359-3.746 27.48-18.315c0.959 1.438 1.947 3.052 3.024 4.756 6.584 10.765 12.844 20.926 32.781 20.926 19.936 0 26.197-10.16 32.781-20.926 1.053-1.718 2.064-3.318 2.595-4.1l34.551-57.555h-53.412v-33.031h92.785l37.589 75.2-29.544 14.783-19.569-39.181zM594.597 167.234h33.033v-33.033h-33.033v33.033zM594.597 233.286h33.033v-33.033h-33.033v33.033zM826.558 716.158c58.329 30.252 98.351 91.119 98.351 161.262 0 36.432-29.632 66.064-66.064 66.064-18.463 0-35.194-7.617-47.189-19.87-14.865 21.935-39.987 36.386-68.424 36.386s-53.559-14.452-68.423-36.386c-11.997 12.254-28.728 19.87-47.189 19.87-36.432 0-66.065-29.633-66.065-66.064 0-70.164 40.037-131.023 98.405-161.283-37.937-11.76-72.938-31.74-103.197-58.75-36.351 27.76-78.238 48.427-123.806 60.135 56.848 30.724 95.566 90.862 95.566 159.897 0 36.432-29.633 66.064-66.065 66.064-18.463 0-35.194-7.617-47.189-19.87-14.864 21.935-39.985 36.386-68.423 36.386s-53.559-14.452-68.424-36.386c-11.997 12.254-28.727 19.87-47.189 19.87-36.432 0-66.064-29.633-66.064-66.064 0-69.035 38.718-129.173 95.542-159.912-149.632-38.444-260.709-174.112-260.709-335.57v-214.71c0-127.505 103.719-231.226 231.226-231.226h231.226c92.011 0 171.384 54.143 208.594 132.129h204.309c81.969 0 148.645 66.677 148.645 148.645v231.226c0 125.818-83.193 232.585-197.458 268.166l0.016-0.009zM594.596 877.419c0 18.219 14.813 33.032 33.033 33.032s33.033-14.813 33.033-33.032h33.031c0 27.319 22.23 49.548 49.548 49.548 27.32 0 49.548-22.23 49.548-49.548h33.033c0 18.219 14.813 33.032 33.033 33.032s33.033-14.813 33.033-33.032c0-81.969-66.677-148.645-148.646-148.645s-148.645 66.676-148.645 148.645zM664.406 682.68c-14.836-21.684-27.893-53.079-37.478-97.003-13.264 18.169-28.196 34.964-44.66 50.227 24.399 20.976 52.217 36.734 82.139 46.776l-0.001 0.001zM198.216 877.419c0 18.219 14.813 33.032 33.033 33.032s33.033-14.813 33.033-33.032h33.031c0 27.319 22.23 49.548 49.548 49.548 27.32 0 49.55-22.23 49.55-49.548h33.031c0 18.219 14.813 33.032 33.033 33.032s33.033-14.813 33.033-33.032c0-81.969-66.677-148.645-148.646-148.645s-148.645 66.676-148.645 148.645v0zM462.474-30.967h-231.226c-109.286 0-198.194 88.907-198.194 198.193v214.71c0 143.025 96.303 263.785 227.394 301.443-47.498-54.519-78.747-153.136-78.747-268.412h33.033c0 152.2 60.498 280.774 132.129 280.774s132.129-128.575 132.129-280.774h33.031c0 115.266-31.248 213.879-78.747 268.412 131.089-37.655 227.394-158.409 227.394-301.443v-214.71c0-109.286-88.907-198.193-198.193-198.193h-0.004zM990.99 216.774c0-63.735-51.877-115.612-115.612-115.612h-191.418c6.282 20.96 9.748 43.104 9.748 66.064v214.71c0 58.831-14.836 114.227-40.78 162.816 8.84 58.751 32.014 150.989 90.329 150.989 61.125 0 99.097-107.583 99.097-280.774h33.033c0 126.15-18.25 216.938-52.624 267.449 97.682-33.231 168.237-125.634 168.237-234.416l-0.008-231.226z" />
<glyph unicode="&#xe913;" glyph-name="Frame-2193" horiz-adv-x="997" d="M675.624 921.266l-10.794 6.171-32.565-32.563-113.971 65.127-33.051-33.051-65.126 32.563-81.735-81.736 32.563-65.126-32.563-32.565 59.703-119.393-88.735-88.736v-120.709h16.282c39.743 0 65.126-38.574 65.126-65.126v-196.217c-54.042-5.387-100.329-37.353-125.711-82.579-34.242 114.014-140.038 197.371-265.048 197.371v-32.563c134.665 0 244.225-109.56 244.225-244.225h32.563c0 66.297 49.818 121.072 113.971 129.128v-129.128c0-44.89 36.518-81.408 81.409-81.408h439.605c44.89 0 81.408 36.518 81.408 81.408v472.169c0 239.721-92.966 292.846-317.557 421.164v0.025zM378.014 871.367l48.517 48.518 34.439-17.212-65.745-65.744-17.211 34.439zM378.014 773.678l145.721 145.72 84.665-48.387-186.034-186.039-44.351 88.707zM960.618 27.92c0-26.93-21.915-48.845-48.845-48.845h-439.606c-26.93 0-48.845 21.915-48.845 48.845v358.198c0 41.715-32.694 87.726-81.408 96.287v76.066l94.891 94.891 1.077 0.539-0.182 0.356 232.557 232.577c216.872-124.003 290.354-169.497 290.354-386.741l0.007-472.172zM602.408 516.382c-44.892 0-81.408-36.518-81.408-81.408v-293.070c0-44.892 36.516-81.409 81.408-81.409h162.816c44.892 0 81.409 36.518 81.409 81.409v130.253c0 134.665-109.56 244.225-244.225 244.225zM814.071 141.903c0-26.931-21.915-48.845-48.846-48.845h-162.816c-26.931 0-48.845 21.914-48.845 48.845v293.070c0 26.93 21.914 48.845 48.845 48.845 116.705 0 211.662-94.957 211.662-211.662v-130.253zM146.526 353.571c0-35.915 29.212-65.126 65.126-65.126s65.126 29.211 65.126 65.126c0 35.914-29.211 65.126-65.126 65.126s-65.126-29.212-65.126-65.126zM244.216 353.571c0-17.96-14.603-32.563-32.563-32.563s-32.563 14.603-32.563 32.563c0 17.96 14.603 32.563 32.563 32.563s32.563-14.603 32.563-32.563zM65.127 776.881h32.563c0 35.914 29.212 65.127 65.127 65.127v32.563c-35.915 0-65.127 29.212-65.127 65.127h-32.563c0-35.915-29.212-65.127-65.127-65.127v-32.563c35.915 0 65.127-29.213 65.127-65.127zM81.408 885.758c7.232-10.874 16.594-20.236 27.469-27.469-10.874-7.232-20.236-16.594-27.469-27.469-7.232 10.874-16.594 20.236-27.469 27.469 10.874 7.232 20.236 16.594 27.469 27.469zM65.132 695.489v-32.563c62.831 0 113.971-51.129 113.971-113.971h32.563c0 62.843 51.142 113.971 113.973 113.971v32.563c-62.83 0-113.973 51.129-113.973 113.971h-32.563c0-62.843-51.141-113.971-113.971-113.971zM195.385 742.364c13.971-27.024 36.132-49.188 63.157-63.157-27.024-13.97-49.187-36.132-63.157-63.157-13.97 27.024-36.132 49.188-63.156 63.157 27.023 13.971 49.188 36.132 63.156 63.157zM895.5 483.816h32.563v-32.563h-32.563v32.563zM895.5 44.21h32.563v-32.563h-32.563v32.563zM895.5 109.33h32.563v-32.565h-32.563v32.565zM895.5 548.934h32.563v-32.563h-32.563v32.563z" />
<glyph unicode="&#xe914;" glyph-name="Group-2021" horiz-adv-x="1011" d="M1010.522 640.003l-505.263 319.997-184.599-116.929c-26.26 17.558-43.585 47.449-43.585 81.334h-32.597c0-53.931-43.862-97.793-97.793-97.793v-32.597c22.789 0 43.717-7.887 60.357-20.993l-207.042-133.097v-201.508l97.793 61.934v-130.114c0-44.939-36.556-81.494-81.494-81.494v-32.598c44.938 0 81.494-36.555 81.494-81.493v-228.184h814.94v553.88l97.793-61.936-0.004 201.591zM209.757 810.311c21.399 11.882 39.133 29.601 51.014 51.015 11.882-21.399 29.614-39.132 51.015-51.015-21.399-11.882-39.133-29.6-51.015-51.014-6.533 11.788-14.981 22.295-24.711 31.491l-0.407 0.633-0.182-0.116c-7.785 7.284-16.327 13.788-25.715 19.005v0.001zM75.016 272.451c15.971 9.634 29.433 23.094 39.067 39.067 9.634-15.972 23.095-29.453 39.066-39.067-15.97-9.634-29.432-23.094-39.066-39.067-9.634 15.972-23.094 29.433-39.067 39.067zM260.771-20.927v423.769h195.587v-423.769h-195.587zM880.127-20.927h-391.172v456.366h-260.78v-456.366h-97.793v195.585c0 44.939 36.556 81.494 81.494 81.494v32.598c-44.937 0-81.494 36.555-81.494 81.493v150.75l374.873 237.422 105.076-66.549c-26.659-27.418-63.892-44.545-105.076-44.545v-32.597c80.876 0 146.689-65.799 146.689-146.689h32.598c0 55.35 30.837 103.614 76.211 128.578l119.374-75.609v-541.932zM668.242 719.355c17.913-38.956 49.384-70.412 88.304-88.325-38.935-17.915-70.397-49.37-88.304-88.327-17.915 38.956-49.385 70.412-88.304 88.327 38.921 17.913 70.389 49.369 88.304 88.325zM977.92 497.655l-178.997 113.37c10.419 2.35 21.187 3.704 32.307 3.704v32.597c-80.876 0-146.689 65.799-146.689 146.689h-32.598c0-27.934-7.99-53.981-21.597-76.226l-125.092 79.224-472.665-299.358v124.474l196.591 126.382c9.635-15.142 15.289-33.055 15.289-52.286h32.597c0 53.931 43.862 97.793 97.793 97.793v32.597c-5.756 0-11.358 0.604-16.838 1.55l147.228 93.246 472.665-299.358 0.007-124.398zM554.158 239.861h244.483v195.587h-244.483v-195.587zM586.756 402.85h179.286v-130.39h-179.286v130.39zM391.157 190.973h32.598v-32.597h-32.598v32.597zM700.842 370.237h32.598v-32.597h-32.598v32.597zM814.948 44.276h32.597v-32.597h-32.597v32.597zM749.736 44.276h32.598v-32.597h-32.598v32.597zM684.552 44.276h32.598v-32.597h-32.598v32.597z" />
<glyph unicode="&#xe915;" glyph-name="message-2-fill" d="M275.413 149.333l-190.080-149.333v789.333c0 11.316 4.495 22.168 12.497 30.17s18.854 12.497 30.17 12.497h768c11.315 0 22.17-4.495 30.171-12.497s12.496-18.854 12.496-30.17v-597.333c0-11.315-4.494-22.17-12.496-30.171s-18.856-12.496-30.171-12.496h-620.587zM298.667 533.333v-85.333h85.333v85.333h-85.333zM469.333 533.333v-85.333h85.333v85.333h-85.333zM640 533.333v-85.333h85.333v85.333h-85.333z" />
<glyph unicode="&#xe916;" glyph-name="task-line" d="M896 832.331v-768.683c-0.090-11.203-4.582-21.926-12.512-29.843-7.926-7.92-18.65-12.403-29.856-12.483h-683.264c-11.229 0-21.999 4.461-29.944 12.397s-12.413 18.701-12.424 29.93v768.683c0.089 11.205 4.583 21.925 12.511 29.845s18.652 12.403 29.857 12.481h683.264c23.382 0 42.368-18.944 42.368-42.325v0zM810.666 789.323h-597.332v-682.667h597.332v682.667zM481.834 400.16l181.037 180.992 60.33-60.33-241.366-241.366-165.972 165.974 60.372 60.33 105.6-105.6z" />
<glyph unicode="&#xe917;" glyph-name="Vector-21" horiz-adv-x="992" d="M989.606 408.094v532.875h-645.931c-0.706 6.262-1.122 12.6-1.122 19.031h-38.063c0-6.431-0.416-12.77-1.122-19.031h-303.369v-989.626h989.627l-0.020 456.751zM856.389 446.155v38.063h95.156v-38.063h-95.156zM951.545 522.281h-105.412c-34.197 39.796-61.36 83.703-82.752 127.493l125.495 125.495-26.908 26.906-115.369-115.369c-38.962 92.303-54.018 178.172-59.149 216.098h264.090l0.005-380.623zM367.143 421.552l-144.825-144.825c-23.525 79.855-45.505 139.236-51.063 153.925v65.922c46.135 54.376 79.967 128.767 101.682 181.521 19.796-27.936 31.538-61.944 31.538-98.717h38.063c0 81.358 57.059 149.487 133.219 166.863v-426.649c-11.929-4.222-24.707-6.661-38.063-6.661v-38.063c13.356 0 26.134-2.437 38.063-6.661v-278.813h-192.14c-9.057 83.295-28.811 170.466-49.388 245.406l159.829 159.827-26.914 26.925zM220.398 769.683c45.462 20.918 82.2 57.647 103.107 103.135 20.918-45.488 57.664-82.217 103.109-103.135-45.462-20.916-82.2-57.646-103.109-103.134-20.916 45.488-57.662 82.218-103.107 103.134zM511.348 293.901c24.987 13.874 45.692 34.564 59.567 59.567 13.874-24.986 34.578-45.692 59.567-59.567-24.987-13.873-45.692-34.562-59.567-59.565-13.874 25.003-34.578 45.691-59.567 59.565zM513.82 245.557c23.297-20.916 38.063-51.156 38.063-84.874h38.063c0 62.973 51.214 114.187 114.187 114.187v38.063c-62.973 0-114.187 51.214-114.187 114.187h-38.063c0-33.704-14.766-63.94-38.063-84.875v560.651h135.122c4.818-39.431 20.935-139.141 68.436-245.319l-131.374-131.374 26.908-26.906 121.911 121.911c21.978-42.805 49.387-85.606 83.473-124.996v-65.599c-11.281-29.932-91.136-246.253-112.334-441.22h-192.139l-0.003 256.164zM475.758 902.908v-109.77c-57.401 13.092-103.799 55.038-123.228 109.77h123.228zM38.038 902.908h256.454c-23.577-66.422-86.881-114.187-161.289-114.187v-38.063c42.515 0 81.375-15.667 111.35-41.409-20.154-50.129-54.332-130.995-101.419-186.967h-105.087l-0.009 380.626zM133.195 484.221v-38.063h-95.156v38.063h95.156zM138.998 408.096c9.116-24.91 30.663-85.904 52.413-162.274l-153.372-153.383v315.658l100.959-0.002zM38.038 38.628l164.985 164.984c17.773-67.296 34.181-142.582 42.31-214.194l-207.297-0.008 0.002 49.218zM744.262-10.59c19.642 173.354 88.037 368.662 106.329 418.687h19.966c-7.044-32.201-19.966-96.371-33-187.611l37.663-5.386c13.983 97.841 28.070 165.13 34.332 193.015h41.997v-418.688l-207.288-0.016z" />
<glyph unicode="&#xe918;" glyph-name="Vector-31" horiz-adv-x="925" d="M848.367 283.962l57.902-34.73c3.571-2.14 6.527-5.166 8.582-8.79 2.051-3.62 3.131-7.713 3.131-11.878 0-4.162-1.080-8.255-3.131-11.875-2.055-3.624-5.011-6.649-8.582-8.79l-422.469-253.48c-7.492-4.502-16.067-6.881-24.807-6.881-8.744 0-17.319 2.378-24.811 6.881l-422.468 253.48c-3.572 2.14-6.529 5.166-8.582 8.79-2.053 3.62-3.132 7.713-3.132 11.875 0 4.165 1.079 8.258 3.132 11.878 2.053 3.624 5.010 6.649 8.582 8.79l57.903 34.73 389.376-233.634 389.374 233.634zM848.367 510.372l57.902-34.733c3.571-2.137 6.527-5.166 8.582-8.787 2.051-3.624 3.131-7.716 3.131-11.878s-1.080-8.255-3.131-11.878c-2.055-3.62-5.011-6.649-8.582-8.787l-447.277-268.367-447.279 268.367c-3.572 2.137-6.529 5.166-8.582 8.787-2.053 3.624-3.132 7.716-3.132 11.878s1.079 8.255 3.132 11.878c2.053 3.62 5.010 6.649 8.582 8.787l57.903 34.733 389.376-233.634 389.374 233.634zM483.751 953.121l422.519-253.481c3.571-2.139 6.527-5.167 8.582-8.789 2.051-3.622 3.131-7.714 3.131-11.877s-1.080-8.255-3.131-11.877c-2.055-3.622-5.011-6.65-8.582-8.788l-447.277-268.365-447.279 268.365c-3.572 2.139-6.529 5.166-8.582 8.788s-3.132 7.714-3.132 11.877c0 4.163 1.079 8.255 3.132 11.877s5.010 6.65 8.582 8.789l422.468 253.481c7.492 4.501 16.067 6.879 24.811 6.879 8.74 0 17.316-2.378 24.807-6.879h-0.050zM458.993 855.669l-294.477-176.695 294.477-176.695 294.473 176.695-294.473 176.695z" />
<glyph unicode="&#xe919;" glyph-name="Vector-51" d="M1023.944 196.552v-201.16c0.006-14.403-5.451-28.271-15.269-38.81-9.819-10.535-23.268-16.957-37.636-17.967-24.86-1.706-45.167-2.616-60.867-2.616-502.699 0-910.172 407.496-910.172 910.222 0 15.701 0.853 36.011 2.617 60.871 1.008 14.368 7.428 27.818 17.965 37.637s24.405 15.276 38.807 15.269h201.148c7.056 0.007 13.863-2.609 19.098-7.34s8.525-11.239 9.231-18.26c1.308-13.084 2.503-23.495 3.641-31.403 11.306-78.901 34.474-155.639 68.717-227.613 5.404-11.376 1.878-24.975-8.362-32.257l-122.759-87.722c75.058-174.902 214.433-314.286 389.327-389.348l87.605 122.541c3.578 5.006 8.803 8.596 14.76 10.146 5.957 1.548 12.268 0.957 17.835-1.671 71.961-34.184 148.673-57.294 227.542-68.552 7.908-1.138 18.318-2.387 31.288-3.64 7.010-0.72 13.505-4.014 18.224-9.248s7.326-12.036 7.317-19.082h-0.056z" />
</font>
</defs>
</svg>
